<svg xmlns="http://www.w3.org/2000/svg" viewBox="0 0 1000.0 602.0">
  <defs>
    <style>
      .box{fill:#fff;stroke:#333;stroke-width:2;rx:14}
      .title{font:700 20px -apple-system,BlinkMacSystemFont,"Segoe UI",Roboto,Arial;fill:#111}
      .h{font:600 16px -apple-system,BlinkMacSystemFont,"Segoe UI",Roboto,Arial;fill:#222}
      .t{font:14px -apple-system,BlinkMacSystemFont,"Segoe UI",Roboto,Arial;fill:#333}
      .muted{font:12px -apple-system,BlinkMacSystemFont,"Segoe UI",Roboto,Arial;fill:#666}
      .interface{fill:#e3f2fd;stroke:#1976d2;stroke-width:2;rx:12}
      .method{fill:#f3e5f5;stroke:#7b1fa2;stroke-width:2;rx:10}
    </style>
  </defs>

  <text class="title" x="40" y="42">IDirectory 接口：提供目录和文件的操作</text>
  <text class="muted" x="40" y="66">IDirectory 提供目录和文件的操作，包括创建目录、获取目录、创建文件读写器、删除文件目录、列出目录等。</text>

  <rect class="interface" x="40" y="95" width="920" height="467.0"/>
  <text class="h" x="70" y="130">IDirectory</text>

  <rect class="method" x="70" y="155" width="400" height="104.0"/>
  <text class="h" x="90" y="180">CreateFileWriter()</text>
  <text class="t" x="90" y="205">创建文件写入器</text>
  <text class="t" x="90" y="225">支持逻辑路径</text>

  <rect class="method" x="490" y="155" width="400" height="104.0"/>
  <text class="h" x="510" y="180">CreateFileReader()</text>
  <text class="t" x="510" y="205">创建文件读取器</text>
  <text class="t" x="510" y="225">支持逻辑路径</text>

  <rect class="method" x="70" y="255" width="400" height="104.0"/>
  <text class="h" x="90" y="280">MakeDirectory()</text>
  <text class="t" x="90" y="305">创建目录</text>
  <text class="t" x="90" y="325">支持递归创建</text>

  <rect class="method" x="490" y="255" width="400" height="104.0"/>
  <text class="h" x="510" y="280">GetDirectory()</text>
  <text class="t" x="510" y="305">获取目录</text>
  <text class="t" x="510" y="325">支持逻辑路径</text>

  <rect class="method" x="70" y="355" width="400" height="104.0"/>
  <text class="h" x="90" y="380">RemoveFile()</text>
  <text class="t" x="90" y="405">删除文件</text>
  <text class="t" x="90" y="425">支持逻辑路径</text>

  <rect class="method" x="490" y="355" width="400" height="104.0"/>
  <text class="h" x="510" y="380">RemoveDirectory()</text>
  <text class="t" x="510" y="405">删除目录</text>
  <text class="t" x="510" y="425">支持递归删除</text>

  <rect class="method" x="70" y="455" width="400" height="84.0"/>
  <text class="h" x="90" y="480">ListDir()</text>
  <text class="t" x="90" y="505">列出目录内容</text>

  <rect class="box" x="490" y="455" width="400" height="84.0"/>
  <text class="h" x="510" y="480">GetFileLength()</text>
  <text class="t" x="510" y="505">获取文件长度</text>

  <text class="muted" x="40" y="530">IDirectory 是目录和文件操作的核心，提供统一的目录和文件接口</text>
</svg>
